<svg enable-background="new 0 0 256 256" height="512" viewBox="0 0 256 256" width="512" xmlns="http://www.w3.org/2000/svg"><g id="Layer_1"><g><g><path d="m228.161 23.882v86.058c0 63.662-40.164 119.611-100.219 140.059-60.959-21.097-100.103-77.348-100.103-140.059v-86.058l100.161-17.883z" fill="#f0c020"/></g><g><path d="m128 25.799-81.16 14.49c0 76.662-.134 73.341.38 80.16 3.812 47.805 34.093 90.535 80.76 109.29.01 0 .01-.01.02-.01 45.554-18.138 76.815-60.59 80.77-109.28.524-6.673.39-3.46.39-80.16z" fill="#72c2e9"/></g><g><g><path d="m83.852 113.192v18.68c0 9.679 3.829 18.962 10.661 25.818 3.919 3.93 6.11 9.261 6.11 14.806v4.563h62.681v-13.801c0-10.704 8.843-16.804 8.843-27.546v-56.549c0-4.894-3.936-8.922-8.945-8.922-4.935 0-8.922 3.987-8.922 8.922v-11.531c0-4.866-3.911-8.922-8.967-8.922-4.924 0-8.922 3.987-8.922 8.922v-5.466c0-4.825-3.856-8.922-9.001-8.922-4.924 0-8.922 3.987-8.922 8.922v9.984c0-4.941-3.999-8.922-8.922-8.922-4.924 0-8.922 3.998-8.922 8.922v41.042c0-4.631-3.75-8.38-8.38-8.38s-8.392 3.749-8.392 8.38z" fill="#feb69f"/></g></g><g><g><path d="m126.969 217.886c-5.846-2.647-11.498-5.77-16.8-9.28-1.151-.762-1.466-2.313-.704-3.465.761-1.15 2.312-1.467 3.465-.704 4.768 3.157 9.833 5.987 15.072 8.421 39.926-18.505 65.659-58.776 65.659-102.92v-59.26c0-1.381 1.119-2.5 2.5-2.5s2.5 1.119 2.5 2.5v59.26c0 46.482-27.332 88.855-69.632 107.949-.637.288-1.389.303-2.06-.001zm-25.862-15.919c-1.528-1.236-3.046-2.528-4.512-3.84-1.029-.921-1.116-2.501-.195-3.53s2.501-1.117 3.53-.195c1.404 1.257 2.857 2.494 4.321 3.678 1.073.868 1.24 2.442.372 3.516-.868 1.073-2.442 1.238-3.516.371z" fill="#c5e5ff"/></g><g><path d="m184.75 211.229c-.97.991-.943 2.579.05 3.53.966.946 2.543.966 3.54-.05 0 0 0 0 .01-.01.95-.99.92-2.57-.069-3.52-.962-.93-2.601-.91-3.531.05z"/><path d="m228.6 21.419c-.351-.063-100.244-17.918-100.6-17.918-.355 0-100.251 17.855-100.6 17.918-1.19.22-2.06 1.25-2.06 2.46v86.06c0 63.568 39.634 120.929 101.78 142.42.567.189 1.071.181 1.63.01 19.348-6.589 37.126-16.989 52.27-30.61 1.021-.92 1.101-2.5.181-3.53-.891-.98-2.54-1.07-3.53-.18-14.47 13.02-31.2 22.88-49.72 29.3-58.37-20.58-97.6-75.8-97.61-137.41v-83.96l97.659-17.44 97.66 17.44v83.96c0 34.47-12.19 67.86-34.311 94.01-.888 1.031-.781 2.617.29 3.52 1.01.86 2.67.72 3.521-.29 22.882-27.013 35.5-61.296 35.5-97.24v-86.06c0-1.21-.87-2.25-2.06-2.46z"/><path d="m152.97 117.569h-.01c-.141.08-14.601 9.06-15.79 32.25-.07 1.37.99 2.55 2.37 2.62.969.236 2.537-.788 2.62-2.36.763-14.564 7.722-24.571 13.609-28.372 1.123-.725 1.41-2.242.63-3.328-.75-1.207-2.293-1.509-3.429-.81z"/><path d="m100.62 179.559c1.38 0 2.5-1.12 2.5-2.5v-4.56c0-6.348-2.541-12.291-6.84-16.57-5.2-5.22-8.61-12.12-9.61-19.42-.19-1.35-1.46-2.32-2.82-2.14-.66.09-1.25.43-1.65.97-.4.53-.58 1.19-.48 1.85 1.123 8.233 4.899 16.118 11.02 22.26 3.42 3.44 5.38 8.19 5.38 13.05v4.56c0 1.38 1.12 2.5 2.5 2.5z"/><path d="m145.31 56.209c-2.56 0-4.97.83-6.99 2.39-1.484-4.532-5.683-7.85-10.93-7.85-5.869 0-11.42 4.509-11.42 11.95-1.91-1.29-4.12-1.97-6.42-1.97-6.3 0-11.42 5.13-11.43 11.42v31.89c-1.75-1.13-3.78-1.73-5.88-1.73-6 0-10.89 4.89-10.89 10.88v3.67c0 1.38 1.12 2.5 2.5 2.5s2.5-1.12 2.5-2.5v-3.67c.01-3.23 2.65-5.87 5.89-5.88 3.24.01 5.88 2.65 5.88 5.88 0 .034.009.067.01.101v15.759c0 1.36 1.06 2.46 2.42 2.5 10.419.311 20.203 8.669 18.97 22.68-.107 1.474 1.055 2.7 2.5 2.7 1.29 0 2.39-1.01 2.49-2.3 1.259-15.697-9.039-26.305-21.38-27.88v-13.56c0-.034-.009-.066-.01-.1v-40.94c.01-3.53 2.89-6.42 6.43-6.42 1.71 0 3.32.67 4.55 1.88 2.529 2.571 1.87 2.011 1.87 36.87h-2.96c-1.38 0-2.5 1.12-2.5 2.5s1.12 2.5 2.5 2.5h49.96c1.38 0 2.5-1.12 2.5-2.5s-1.12-2.5-2.5-2.5h-6.189v-25.32c0-3.53 2.88-6.42 6.42-6.42 3.618 0 6.449 2.937 6.449 6.42v56.55c-.076 10.124-8.85 16.057-8.85 27.55v13.8c0 1.38 1.13 2.5 2.51 2.5 1.37 0 2.5-1.12 2.5-2.5l-.01-.01v-13.79c0-9.713 8.889-16.313 8.85-27.55v-56.55c-.01-3.05-1.199-5.92-3.35-8.07-2.153-2.153-5.039-3.35-8.1-3.35-2.301.01-4.521.69-6.42 1.98v-2.09c0-6.203-5.024-11.42-11.47-11.42zm-24.34 48.27c0-16.063 0-25.907 0-42.31 0-3.54 2.89-6.42 6.42-6.42 3.753 0 6.491 2.992 6.5 6.42 0 0 .01.595.01 42.31zm30.81 0h-12.89v-36.85c.01-3.53 2.891-6.41 6.42-6.42 3.652 0 6.46 2.953 6.471 6.42-.001 17.774-.001 8.982-.001 36.85z"/><circle cx="83.85" cy="126.859" r="2.5"/><path d="m57.84 155.799s-.01 0-.01-.01c-.49-1.25-1.96-1.9-3.23-1.41-1.277.495-1.933 1.947-1.42 3.24.523 1.371 2.066 1.9 3.23 1.42 1.29-.5 1.93-1.95 1.43-3.24z"/><path d="m127.05 232.059c.6.239 1.273.247 1.91-.02 47.244-18.836 78.902-63.341 82.32-111.68.494-6.274.38-4.333.38-80.07 0-1.21-.87-2.25-2.061-2.46-.353-.063-81.241-14.528-81.6-14.528-.358 0-81.247 14.465-81.6 14.528-1.19.21-2.06 1.25-2.06 2.46 0 73.127-1.819 83.335 5.52 107.69.38 1.28 1.82 2.06 3.11 1.67 1.32-.39 2.07-1.79 1.68-3.11-6.843-22.682-5.31-32.04-5.31-104.16l78.661-14.04 78.66 14.04c0 77.35.109 70.693-.38 77.87-3.881 47.79-33.881 88.71-78.3 106.79-28.198-11.581-52.108-33.011-66.24-62.24-.58-1.2-2.13-1.76-3.33-1.17-1.25.6-1.77 2.09-1.17 3.33 14.276 29.628 38.877 52.669 69.81 65.1z"/></g></g></g></g></svg>